
<svg fill="#db3d3d" height="150px" width="150px" version="1.1" id="Layer_1" xmlns="http://www.w3.org/2000/svg" xmlns:xlink="http://www.w3.org/1999/xlink" viewBox="-51.2 -51.2 614.40 614.40" xml:space="preserve" stroke="#db3d3d" stroke-width="3.072" transform="matrix(1, 0, 0, 1, 0, 0)rotate(0)">

<g id="SVGRepo_bgCarrier" stroke-width="0"/>

<g id="SVGRepo_tracerCarrier" stroke-linecap="round" stroke-linejoin="round" stroke="#CCCCCC" stroke-width="5.12"/>

<g id="SVGRepo_iconCarrier"> <g> <g> <path d="M256,46C153.635,46,76.59,224.095,76.59,339.58c0,105.722,64.343,169.685,172.508,172.295 c2.26,0.082,4.558,0.125,6.901,0.125c2.344,0,4.642-0.043,6.901-0.125c108.161-2.61,172.509-66.572,172.509-172.295 C435.41,224.095,358.365,46,256,46z M273.777,492.752c-5.773,0.395-11.693,0.608-17.777,0.608c-6.087,0-12.007-0.213-17.78-0.608 c-27.835-2.892-52.12-19.58-52.12-115.892c0-127.517,38.545-284.26,69.9-284.26c31.355,0,69.9,156.742,69.9,284.26 C325.9,473.173,301.612,489.86,273.777,492.752z M323.904,483.175c13.448-20.095,20.636-53.143,20.636-106.315 c0-102.807-31.255-302.9-88.54-302.9c-57.285,0-88.54,200.093-88.54,302.9c0,53.172,7.185,86.22,20.633,106.315 C128.312,462.898,95.23,413.005,95.23,339.58c0-108.573,72.02-274.94,160.77-274.94c88.749,0,160.77,166.367,160.77,274.94 C416.77,413.005,383.685,462.898,323.904,483.175z"/> </g> </g> <g> <g> <polygon points="189.727,0 189.727,18.64 245.647,18.64 245.647,37.28 264.287,37.28 264.287,18.64 320.207,18.64 320.207,0 "/> </g> </g> </g>

</svg>